<svg height="40px" version="1.1" viewBox="0 0 42 42" width="40px" xmlns:xlink="http://www.w3.org/1999/xlink" xmlns="http://www.w3.org/2000/svg">
    <defs></defs>
    <g fill-rule="evenodd" fill="none" id="Footer" stroke-width="1" stroke="none">
        <g id="footer_V3" transform="translate(-738.000000, -211.000000)">
            <g id="Group-8" transform="translate(739.000000, 212.000000)">
                <circle cx="20" cy="20" id="zc-circle" r="20" stroke="#FFFFFF"></circle>
                <g fill-rule="nonzero" fill="#FFFFFF" id="zc-icon" transform="translate(10.000000, 10.000000)">
                    <g id="Group">
                        <g id="noun_676365_cc">
                            <g id="Artboard-26">
                                <path d="M19.8244444,11.2721875 L19.8244444,13.0790625 C19.8284371,13.6539355 19.5165097,14.1860501 19.0088889,14.4703125 C18.5984978,14.7217802 18.1295305,14.8656189 17.6466667,14.888125 L17.5288889,14.888125 C16.95632,14.8960953 16.4374724,14.5573388 16.2222222,14.035 C16.1007907,13.757718 16.0300745,13.4614998 16.0133333,13.16 L16.0133333,13.146875 L16.06,10.303125 C16.1200534,9.70704806 16.5325022,9.20233235 17.1111111,9.016875 C17.0995794,8.01157784 16.8540281,7.02226933 16.3933333,6.125 C15.2488889,3.9178125 13.4311111,2.625 10.9888889,2.2640625 C7.18303819,1.70760346 3.62534113,4.25344145 2.98888889,7.98875 C2.9429221,8.28797904 2.91546412,8.58968055 2.90666667,8.8921875 L2.90666667,9.02125 C3.38743888,9.16982284 3.75838268,9.54898308 3.89111111,10.0275 C3.96248984,10.2557224 3.99918321,10.4930827 4,10.731875 L4,13.0878125 C3.99474127,13.3399342 3.95130014,13.5898729 3.87111111,13.829375 C3.77649188,14.1325345 3.58858179,14.3992945 3.33333333,14.5928125 C3.50875025,16.6520436 5.25629861,18.2363778 7.35555556,18.239375 L7.88222222,18.239375 C8.06825761,17.9167268 8.41644994,17.7177635 8.79333333,17.71875 L10.8044444,17.71875 C11.3837298,17.71875 11.8533333,18.181016 11.8533333,18.75125 L11.8533333,19.845 C11.8533333,20.415234 11.3837298,20.8775 10.8044444,20.8775 L8.79333333,20.8775 C8.41444627,20.8750378 8.06662841,20.6707799 7.88444444,20.34375 L7.35777778,20.34375 C4.08779041,20.338466 1.38924519,17.8240662 1.20444444,14.6103125 C1.09413138,14.5555078 0.988589647,14.4918553 0.888888889,14.42 C0.461933755,14.1409732 0.199248509,13.6752015 0.184444444,13.1709375 C0.171111111,12.376875 0.171111111,11.5390625 0.184444444,10.679375 C0.190462955,10.2070278 0.417616485,9.76385546 0.8,9.4784375 C0.714539244,7.11996824 1.57685406,4.82338135 3.2,3.0865625 C4.47067788,1.65633505 6.19223094,0.687301201 8.08888889,0.3346875 C11.6444444,-0.3346875 14.6555556,0.6759375 17.0244444,3.3403125 C18.5422222,5.044375 19.2777778,7.11375 19.2133333,9.4915625 C19.6128982,9.79747787 19.8426431,10.2708636 19.8333333,10.7690625 L19.8244444,11.2721875 Z M14.3044444,8.360625 L14.3044444,12.6634375 C14.3038607,13.0318213 14.1541785,13.3847912 13.8885163,13.6442498 C13.622854,13.9037084 13.263113,14.0482658 12.8888889,14.0459375 L11.1111111,14.0459375 L9.81777778,15.3125 C9.66019043,15.4669876 9.4237153,15.5130932 9.21820367,15.4293991 C9.01269204,15.3457051 8.87842631,15.1486162 8.87777778,14.9296875 L8.87777778,14.0459375 L7.11111111,14.0459375 C6.33596526,14.044733 5.70789026,13.4264717 5.70666667,12.6634375 L5.70666667,8.360625 C5.70789026,7.5975908 6.33596526,6.97932948 7.11111111,6.978125 L12.8888889,6.978125 C13.263113,6.97579669 13.622854,7.12035409 13.8885163,7.3798127 C14.1541785,7.63927132 14.3038607,7.99224124 14.3044444,8.360625 Z M8.93555556,10.5109375 C8.93555556,10.2258205 8.70075378,9.9946875 8.41111111,9.9946875 C8.12146844,9.9946875 7.88666667,10.2258205 7.88666667,10.5109375 C7.88666667,10.7960545 8.12146844,11.0271875 8.41111111,11.0271875 C8.70075378,11.0271875 8.93555556,10.7960545 8.93555556,10.5109375 L8.93555556,10.5109375 Z M10.5244444,10.5109375 C10.5232184,10.2261084 10.2878765,9.9960733 9.99852479,9.99687706 C9.70917313,9.99768081 9.47515382,10.2290197 9.47556078,10.5138511 C9.47596774,10.7986825 9.71064718,11.0293724 10,11.029375 C10.1394772,11.0293762 10.2732096,10.9746856 10.3716261,10.8773963 C10.4700427,10.780107 10.5250354,10.6482341 10.5244444,10.5109375 L10.5244444,10.5109375 Z M12.1133333,10.5109375 C12.1133333,10.2258205 11.8785316,9.9946875 11.5888889,9.9946875 C11.2992462,9.9946875 11.0644444,10.2258205 11.0644444,10.5109375 C11.0644444,10.7960545 11.2992462,11.0271875 11.5888889,11.0271875 C11.7283648,11.0277693 11.8623309,10.9736357 11.9611645,10.876757 C12.0599981,10.7798782 12.1155568,10.6482354 12.1155556,10.5109375 L12.1133333,10.5109375 Z" id="Shape"></path>
                            </g>
                        </g>
                    </g>
                </g>
            </g>
        </g>
    </g>
</svg>
