<?xml version="1.0" encoding="utf-8"?>
<!-- Generator: Adobe Illustrator 24.0.1, SVG Export Plug-In . SVG Version: 6.00 Build 0)  -->
<svg version="1.1" id="Layer_1" xmlns="http://www.w3.org/2000/svg" xmlns:xlink="http://www.w3.org/1999/xlink" x="0px" y="0px"
	 viewBox="0 0 50 50" style="enable-background:new 0 0 50 50;" xml:space="preserve">
<style type="text/css">
	.st0{fill:#FFFFFF;enable-background:new    ;}
</style>
<title>Insta</title>
<g>
	<circle class="st0" cx="24.8" cy="25.2" r="4.5"/>
	<path class="st0" d="M30.4,14.2H19.2c-1.5-0.1-2.9,0.4-4,1.4c-1,1.1-1.5,2.5-1.4,4v11.1c-0.1,1.5,0.5,3,1.5,4.1
		c1.1,1,2.5,1.5,4,1.4h11.1c1.5,0.1,2.9-0.4,4-1.4c1.1-1.1,1.6-2.5,1.5-4V19.7c0.1-1.5-0.5-2.9-1.4-4C33.4,14.7,31.9,14.1,30.4,14.2
		z M24.8,32.1c-3.8,0-6.9-3.1-6.9-6.9s3.1-6.9,6.9-6.9s6.9,3.1,6.9,6.9S28.6,32.1,24.8,32.1z M32,19.6c-0.9,0-1.6-0.7-1.6-1.6
		s0.7-1.6,1.6-1.6s1.6,0.7,1.6,1.6S32.9,19.6,32,19.6z"/>
	<path class="st0" d="M25,0C11.2,0,0,11.2,0,25s11.2,25,25,25s25-11.2,25-25S38.8,0,25,0z M38.3,30.9c0.1,2.2-0.7,4.2-2.2,5.8
		c-1.5,1.4-3.6,2.2-5.7,2.1H19.3c-2.1,0.1-4.2-0.7-5.7-2.1c-1.5-1.5-2.3-3.6-2.2-5.8V19.7c-0.2-4.1,2.9-7.7,7.1-7.9
		c0.3,0,0.6,0,0.8,0h11.2c2.1-0.1,4.2,0.7,5.7,2.2s2.2,3.6,2.1,5.7V30.9z"/>
</g>
</svg>
