<svg width="32" height="32" viewBox="0 0 32 32" xmlns="http://www.w3.org/2000/svg" xmlns:xlink="http://www.w3.org/1999/xlink">
    <title>B959C83F-14E1-4998-ACFC-8B8D496AD7D1</title>
    <defs>
        <path d="M0 16c0 8.837 7.161 16 15.995 16S31.99 24.837 31.99 16 24.829 0 15.995 0 0 7.163 0 16z" id="a" />
    </defs>
    <g fill="none" fill-rule="evenodd">
        <mask id="b" fill="#fff">
            <use xlink:href="#a" />
        </mask>
        <use fill="#9199A3" xlink:href="#a" />
        <path d="M35.378 31.695a1.115 1.115 0 0 0-.192-.088c-1.052-.374-2.075-.83-3.132-1.187-1.043-.352-2.131-.574-3.168-.94a84.917 84.917 0 0 1-4.58-1.771c-.339-.142-.58-.521-.855-.803-.472-.483-.905-1.01-1.412-1.453-.435-.382-.384-.837-.382-1.316.006-1.216.363-2.363.695-3.513.05-.176.267-.304.41-.454.18-.19.41-.35.535-.57.458-.812.9-1.634 1.304-2.473.124-.26.153-.591.139-.886-.02-.406-.117-.809-.191-1.211-.02-.107-.05-.27-.119-.299-.374-.152-.27-.408-.178-.667a14.44 14.44 0 0 0 .803-4.183c.017-.368-.141-.741-.2-1.115-.277-1.735-1.369-2.921-2.672-3.963-1.09-.872-2.267-1.62-3.618-1.984a12.779 12.779 0 0 0-2.92-.44c-.528-.016-1.068.327-1.601.513-.294.102-.578.239-.877.318-1.366.36-2.254 1.352-3.113 2.362-.493.58-.87 1.257-1.36 1.839-.339.402-.37.827-.345 1.3.052.958.092 1.915.138 2.873.019.394.08.79.048 1.18-.03.366-.16.723-.238 1.085-.1.465-.25.93-.27 1.4-.023.48.037.977.143 1.45.139.618.35 1.22.546 1.825.05.155.122.354.246.425.382.217.478.562.551.948.25 1.318.513 2.63 1.22 3.81.24.402.156.87-.133 1.231-.924 1.156-1.746 2.402-2.886 3.372-.242.207-.51.413-.802.526-2.216.856-4.445 1.677-6.66 2.535-.257.1-.51.21-.76.324h35.886z" fill="#E8E9EA" mask="url(#b)" />
    </g>
</svg>