<svg xmlns="http://www.w3.org/2000/svg" width="84" height="84" viewBox="0 0 84 84">
    <g fill="none" fill-rule="nonzero" stroke="#33414F" transform="translate(2 2)">
        <g fill="#FFF" stroke-width="2.222">
            <path d="M20.717 36.505l-4.12-5.309-.022.005c-2.75.678-5.22 1.469-7.343 2.351L4.55 37.258 8.565 41.7c2.31-.562 4.75.09 6.874 1.625l-.001-.005v-.003l.002.008 5.277-6.82zM29.389 55.785L20.83 56.96c-.241 2.545-.726 4.687-2.201 6.26l.956 6.376 6.271-1.295s.655-3.76 5.574-6.143l-2.041-6.373zM60.764 36.505l4.12-5.309c2.773.683 5.243 1.474 7.365 2.356l4.683 3.706-4.016 4.442c-2.31-.562-4.75.09-6.874 1.625.001-.004 1.525-.545 4.572-1.625l-4.573 1.625-5.277-6.82zM52.093 55.785l8.116 1.064c.241 2.545 1.168 4.798 2.644 6.371l-.957 6.376-6.271-1.295s-.654-3.76-5.573-6.143l2.04-6.373z"/>
        </g>
        <g fill="#FFF" stroke-width="2.222">
            <path d="M40 80c-10.684 0-20.73-4.16-28.284-11.716C4.16 60.73 0 50.684 0 40c0-10.684 4.16-20.73 11.716-28.284C19.27 4.16 29.316 0 40 0c10.684 0 20.73 4.16 28.284 11.716C75.84 19.27 80 29.316 80 40c0 10.684-4.16 20.73-11.716 28.284C60.73 75.84 50.684 80 40 80zm0-72.31C22.184 7.69 7.69 22.184 7.69 40c0 17.816 14.494 32.31 32.31 32.31 17.816 0 32.31-14.494 32.31-32.31C72.31 22.184 57.816 7.69 40 7.69z"/>
            <path d="M15.783 30.868c-.005.01-2.077 5.067-1.163 12.345l.002.005c2.282 1.673 4.201 4.376 5.207 7.706.627 2.079.822 4.152.643 6.063 0 0 4.393-.296 10.188 5.405 2.917.7 6.061 1.082 9.34 1.082 3.278 0 6.423-.382 9.34-1.082 5.795-5.7 10.187-5.405 10.187-5.405-.178-1.911.017-3.984.644-6.063 1.005-3.33 2.925-6.033 5.207-7.706l.002-.005c.913-7.278-1.158-12.334-1.163-12.345C57.495 29.188 49.104 28.19 40 28.19s-17.495.999-24.218 2.68z"/>
        </g>
        <circle cx="40.741" cy="45.185" r="9.63" fill="#BEDAAE" stroke-width="1.481"/>
    </g>
</svg>
