<svg id="Layer_1" data-name="Layer 1" xmlns="http://www.w3.org/2000/svg" viewBox="0 0 50 50"><defs><style>.cls-1{fill:#fff;fill-rule:evenodd;}</style></defs><title>LinkdIn</title><path class="cls-1" d="M39,36.78V27c0-5.23-2.79-7.66-6.51-7.66a5.61,5.61,0,0,0-5.1,2.81V19.76H21.76c.08,1.6,0,17,0,17h5.66V27.27a3.82,3.82,0,0,1,.19-1.37,3.07,3.07,0,0,1,2.9-2.07c2.05,0,2.86,1.56,2.86,3.84v9.11ZM15.8,17.44a3,3,0,1,0,0-5.89,3,3,0,1,0-.08,5.89ZM25,50A25,25,0,1,1,50,25,25,25,0,0,1,25,50ZM18.63,36.78v-17H13v17Z"/></svg>