<svg id="Layer_1" data-name="Layer 1" xmlns="http://www.w3.org/2000/svg" viewBox="0 0 50 50"><defs><style>.cls-1{fill:#fff;}</style></defs><title>Blog</title><path class="cls-1" d="M30.62,27.8H21.1a1.61,1.61,0,1,0,0,3.22h9.52a1.61,1.61,0,0,0,0-3.22Z"/><path class="cls-1" d="M21.1,21.35h4.68a1.62,1.62,0,1,0,0-3.23H21.1a1.62,1.62,0,1,0,0,3.23Z"/><path class="cls-1" d="M25,0A25,25,0,1,0,50,25,25,25,0,0,0,25,0ZM39.16,29.54A8.48,8.48,0,0,1,30.7,38H21a8.48,8.48,0,0,1-8.46-8.44V19.67A8.49,8.49,0,0,1,21,11.2H26.9a9.33,9.33,0,0,1,6.54,4.62,6.62,6.62,0,0,1,.75,2.88c.15,1.06.22,1.85.7,2.28.67.61,3.15.2,3.64.59l.38.29.23.47.07.37Z"/></svg>