<?xml version="1.0" encoding="utf-8"?>
<!-- Generator: Adobe Illustrator 24.0.1, SVG Export Plug-In . SVG Version: 6.00 Build 0)  -->
<svg version="1.1" id="Layer_1" xmlns="http://www.w3.org/2000/svg" xmlns:xlink="http://www.w3.org/1999/xlink" x="0px" y="0px"
	 viewBox="0 0 50 50" style="enable-background:new 0 0 50 50;" xml:space="preserve">
<style type="text/css">
	.st0{fill:#FFFFFF;}
</style>
<title>Youtube</title>
<g>
	<path class="st0" d="M25,0C11.2,0,0,11.2,0,25s11.2,25,25,25s25-11.2,25-25S38.8,0,25,0z M40.6,26.2c0,1.7-0.1,3.4-0.3,5.1
		c-0.1,1.1-0.6,2.2-1.2,3.1c-0.8,0.8-2,1.3-3.1,1.3C31.6,36,25,36,25,36s-8.1-0.1-10.6-0.3c-1.3,0-2.5-0.5-3.4-1.3
		c-0.7-0.9-1.1-2-1.2-3.1c-0.2-1.7-0.3-3.4-0.3-5.1v-2.4c0-1.7,0.1-3.4,0.3-5.1c0.1-1.1,0.6-2.2,1.2-3.1c0.8-0.8,2-1.3,3.1-1.3
		C18.4,14,25,14,25,14s6.6,0,10.9,0.3c1.2,0,2.3,0.5,3.1,1.3c0.7,0.9,1.1,2,1.2,3.1c0.2,1.7,0.3,3.4,0.3,5.1V26.2z"/>
	<polygon class="st0" points="21.4,29.5 30.6,24.7 21.4,19.9 	"/>
</g>
</svg>
