<svg xmlns="http://www.w3.org/2000/svg" xmlns:xlink="http://www.w3.org/1999/xlink" width="80" height="75" viewBox="0 0 80 75">
    <defs>
        <path id="a" d="M6.452 15.517h67.097v11.638H6.452z"/>
        <path id="b" d="M11.644 6.466h56.712a5.193 5.193 0 0 1 5.192 5.192v6.445H6.452v-6.445a5.193 5.193 0 0 1 5.192-5.192z"/>
        <path id="c" d="M6.452 33.621h67.097v11.638H6.452z"/>
        <path id="d" d="M6.452 24.569h67.097v11.638H6.452z"/>
    </defs>
    <g fill="none" fill-rule="evenodd">
        <path fill="#BEDAAE" fill-rule="nonzero" stroke="#33414F" stroke-width=".784" d="M55.216 53.284c-.697-5.15-3.547-8.902-7.057-8.902h-16.4c-3.51 0-6.36 3.75-7.058 8.902-2.532 1.275-3.845 3.92-3.845 6.99 0 2.358.777 4.468 2.283 5.898v1.907h33.636v-1.91c1.51-1.43 2.286-3.54 2.286-5.895 0-3.07-1.313-5.716-3.845-6.99zM31.76 46.2h16.399c2.308 0 4.332 2.726 5.084 6.42a9.436 9.436 0 0 0-1.189-.13c0-.007.003-.013.003-.02 0-2.144-1.75-3.886-3.9-3.886a3.896 3.896 0 0 0-3.899 3.885H28.367c-.6 0-1.164.053-1.694.151.752-3.694 2.775-6.42 5.087-6.42zm19.083 6.27h-5.367a2.681 2.681 0 0 1 2.683-2.675 2.681 2.681 0 0 1 2.684 2.674zM27.456 62.808a2.54 2.54 0 0 1-2.545-2.535c0-1.4 1.141-2.538 2.545-2.538a2.544 2.544 0 0 1 2.548 2.538 2.54 2.54 0 0 1-2.548 2.535zm19.897-.45H32.564a.606.606 0 1 1 0-1.214h14.79a.607.607 0 1 1 0 1.213zm0-2.224H32.564a.605.605 0 1 1 0-1.211h14.79a.606.606 0 1 1 0 1.211zm5.107 2.674a2.54 2.54 0 0 1-2.547-2.535c0-1.4 1.14-2.538 2.547-2.538a2.544 2.544 0 0 1 2.547 2.538 2.54 2.54 0 0 1-2.547 2.535z"/>
        <path fill="#33414F" d="M23.226 67.888h5.161v5.167c0 .717-.581 1.298-1.298 1.298h-2.565a1.298 1.298 0 0 1-1.298-1.298v-5.167zM51.613 67.888h5.161v5.167c0 .717-.581 1.298-1.298 1.298h-2.565a1.298 1.298 0 0 1-1.298-1.298v-5.167z"/>
        <g>
            <use fill="#FFF" xlink:href="#a"/>
            <path stroke="#33414F" stroke-width="1.947" d="M7.425 16.491h65.15v9.691H7.425z"/>
        </g>
        <g>
            <use fill="#FFF" xlink:href="#b"/>
            <path stroke="#33414F" stroke-width="1.947" d="M7.425 17.13h65.15v-5.472a4.22 4.22 0 0 0-4.22-4.219h-56.71a4.22 4.22 0 0 0-4.22 4.22v5.47z"/>
        </g>
        <g>
            <use fill="#FFF" xlink:href="#c"/>
            <path stroke="#33414F" stroke-width="1.947" d="M7.425 34.594h65.15v9.691H7.425z"/>
        </g>
        <g>
            <use fill="#FFF" xlink:href="#d"/>
            <path stroke="#33414F" stroke-width="1.947" d="M7.425 25.543h65.15v9.691H7.425z"/>
        </g>
        <path stroke="#33414F" stroke-width="2.596" d="M6.384 73.418h67.232V10.44a3.895 3.895 0 0 0-3.895-3.895H10.28a3.895 3.895 0 0 0-3.895 3.895v62.978z"/>
        <path stroke="#33414F" stroke-width="2.596" d="M1.848 73.355h76.304v-62.4a9.087 9.087 0 0 0-9.087-9.087h-58.13a9.087 9.087 0 0 0-9.087 9.087v62.4z"/>
    </g>
</svg>
