<svg height="40px" version="1.1" viewBox="0 0 42 42" width="40px" xmlns:xlink="http://www.w3.org/1999/xlink" xmlns="http://www.w3.org/2000/svg">
    <defs></defs>
    <g fill-rule="evenodd" fill="none" id="Footer" stroke-width="1" stroke="none">
        <g id="footer_V3" transform="translate(-533.000000, -211.000000)">
            <g id="Group-9" transform="translate(534.000000, 212.000000)">
                <circle cx="20" cy="20" id="zc-circle" r="20" stroke="#FFFFFF"></circle>
                <g fill-rule="nonzero" fill="#FFFFFF" id="zc-icon" transform="translate(14.000000, 12.000000)">
                    <g id="Group">
                        <g id="Shape">
                            <path d="M1.20956356,0 C0.540861529,0 0,0.554849327 0,1.24084538 L0,15.1896589 C0,15.8756549 0.540861529,16.4305043 1.20956356,16.4305043 L10.2306435,16.4305043 C10.8993455,16.4305043 11.4402071,15.8756549 11.4402071,15.1896589 L11.4402071,1.24084538 C11.4402071,0.554849327 10.8993455,0 10.2306435,0 L1.20956356,0 Z M2.09737129,3.22742048 C2.41328384,3.22742048 2.66938165,3.49014151 2.66938165,3.81422421 C2.66938165,4.13830691 2.41328384,4.40102793 2.09737129,4.40102793 C1.78145875,4.40102793 1.52536094,4.13830691 1.52536094,3.81422421 C1.52536094,3.49014151 1.78145875,3.22742048 2.09737129,3.22742048 Z M4.06365688,3.3557838 C4.06961452,3.3556416 4.07557457,3.3556416 4.08153221,3.3557838 C4.08748984,3.35564115 4.0934499,3.35564115 4.09940753,3.3557838 C4.10536516,3.35564077 4.11132522,3.35564077 4.11728285,3.3557838 C4.12324048,3.35564047 4.12920055,3.35564047 4.13515818,3.3557838 C4.1411158,3.35564025 4.14707588,3.35564025 4.1530335,3.3557838 C4.15899112,3.3556401 4.1649512,3.3556401 4.17090882,3.3557838 C4.17885147,3.35552822 4.18679995,3.35552822 4.19474259,3.3557838 L9.90292924,3.3557838 C10.0402242,3.35378855 10.167929,3.42791187 10.2371431,3.54977049 C10.3063572,3.6716291 10.3063572,3.82234346 10.2371431,3.94420207 C10.167929,4.06606069 10.0402242,4.14018401 9.90292924,4.13818876 L4.19474259,4.13818876 C3.98448648,4.17538546 3.78469569,4.03039203 3.74849737,3.81433686 C3.71229905,3.5982817 3.85340077,3.3929805 4.06365688,3.3557838 L4.06365688,3.3557838 Z M2.09737129,6.1614391 C2.41328384,6.1614391 2.66938165,6.42416013 2.66938165,6.74824283 C2.66938165,7.07232553 2.41328384,7.33504655 2.09737129,7.33504655 C1.78145875,7.33504655 1.52536094,7.07232553 1.52536094,6.74824283 C1.52536094,6.42416013 1.78145875,6.1614391 2.09737129,6.1614391 Z M4.05174,6.35704034 C4.05769764,6.35689849 4.06365768,6.35689849 4.06961532,6.35704034 C4.07557296,6.35689799 4.08153301,6.35689799 4.08749065,6.35704034 C4.09344828,6.35689756 4.09940834,6.35689756 4.10536597,6.35704034 C4.1113236,6.35689721 4.11728367,6.35689721 4.12324129,6.35704034 C4.12919892,6.35689694 4.13515899,6.35689694 4.14111662,6.35704034 C4.14707424,6.35689674 4.15303432,6.35689674 4.15899194,6.35704034 C4.17090225,6.35646511 4.18283228,6.35646511 4.19474259,6.35704034 L9.90292924,6.35704034 C10.0402242,6.3550451 10.167929,6.42916842 10.2371431,6.55102703 C10.3063572,6.67288565 10.3063572,6.8236 10.2371431,6.94545862 C10.167929,7.06731724 10.0402242,7.14144056 9.90292924,7.13944531 L4.19474259,7.13944531 C3.98448649,7.18002352 3.78202804,7.03777135 3.74253897,6.82171619 C3.70304989,6.60566103 3.84148391,6.39761857 4.05174,6.35704034 Z M2.09737129,9.09545772 C2.41328384,9.09545772 2.66938165,9.35817875 2.66938165,9.68226145 C2.66938165,10.0063441 2.41328384,10.2690652 2.09737129,10.2690652 C1.78145875,10.2690652 1.52536094,10.0063441 1.52536094,9.68226145 C1.52536094,9.35817875 1.78145875,9.09545772 2.09737129,9.09545772 Z M4.06961532,9.29105897 C4.07557296,9.29091661 4.08153301,9.29091661 4.08749065,9.29105897 C4.09344828,9.29091618 4.09940834,9.29091618 4.10536597,9.29105897 C4.1113236,9.29091583 4.11728367,9.29091583 4.12324129,9.29105897 C4.12919892,9.29091556 4.13515899,9.29091556 4.14111662,9.29105897 C4.14707424,9.29091536 4.15303432,9.29091536 4.15899194,9.29105897 C4.17090225,9.29048373 4.18283228,9.29048373 4.19474259,9.29105897 L9.90292924,9.29105897 C10.0402242,9.28906372 10.167929,9.36318704 10.2371431,9.48504566 C10.3063572,9.60690427 10.3063572,9.75761862 10.2371431,9.87947724 C10.167929,10.0013359 10.0402242,10.0754592 9.90292924,10.0734639 L4.19474259,10.0734639 C3.98448649,10.1089699 3.78602956,9.9626058 3.75147662,9.74655064 C3.71692368,9.53049548 3.85935923,9.32656492 4.06961532,9.29105897 L4.06961532,9.29105897 Z M2.09737129,12.0294763 C2.41328384,12.0294763 2.66938165,12.2921974 2.66938165,12.6162801 C2.66938165,12.9403628 2.41328384,13.2030838 2.09737129,13.2030838 C1.78145875,13.2030838 1.52536094,12.9403628 1.52536094,12.6162801 C1.52536094,12.2921974 1.78145875,12.0294763 2.09737129,12.0294763 Z M4.08749065,12.2250776 C4.09344828,12.2249348 4.09940834,12.2249348 4.10536597,12.2250776 C4.1113236,12.2249345 4.11728367,12.2249345 4.12324129,12.2250776 C4.12919892,12.2249342 4.13515899,12.2249342 4.14111662,12.2250776 C4.14707424,12.224934 4.15303432,12.224934 4.15899194,12.2250776 C4.17090225,12.2245024 4.18283228,12.2245024 4.19474259,12.2250776 L9.90292924,12.2250776 C10.0402242,12.2230823 10.167929,12.2972057 10.2371431,12.4190643 C10.3063572,12.5409229 10.3063572,12.6916372 10.2371431,12.8134959 C10.167929,12.9353545 10.0402242,13.0094778 9.90292924,13.0074826 L4.19474259,13.0074826 C3.98448649,13.0379162 3.79003109,12.8874402 3.76041429,12.6713851 C3.73079748,12.4553299 3.87723455,12.2555113 4.08749065,12.2250776 Z"></path>
                        </g>
                    </g>
                </g>
            </g>
        </g>
    </g>
</svg>
