<?xml version="1.0" encoding="UTF-8"?>
<svg width="182px" height="31px" viewBox="0 0 182 31" version="1.1" xmlns="http://www.w3.org/2000/svg" xmlns:xlink="http://www.w3.org/1999/xlink">
    <!-- Generator: Sketch 52.5 (67469) - http://www.bohemiancoding.com/sketch -->
    <title>star_rating</title>
    <desc>Created with Sketch.</desc>
    <g id="star_rating" stroke="none" stroke-width="1" fill="none" fill-rule="evenodd">
        <g id="Group" transform="translate(1.000000, 1.000000)">
            <path d="M168.494596,26.58544 C168.494596,28.5979879 167.076117,24.305334 164.220677,24.7445367 C162.580988,24.9967414 159.975697,26.0824862 156.404805,28.0017709 L156.404815,28.0017899 C155.918334,28.2632635 155.311998,28.0808595 155.050524,27.5943791 C154.945672,27.3992979 154.908546,27.1749285 154.944971,26.9564704 L156.336013,18.6136742 C156.389874,18.290645 156.282152,17.9617135 156.047642,17.7331226 L150.339291,12.1688549 C149.943807,11.7833536 149.935715,11.1502404 150.321216,10.7547568 C150.474725,10.5972732 150.675867,10.494786 150.893504,10.4631615 L158.794689,9.31505203 C159.111842,9.26896699 159.387693,9.07366515 159.536522,8.78983468 L163.346504,1.52387094 C163.60298,1.03475045 164.207405,0.846154283 164.696525,1.10262961 C164.873227,1.19528509 165.018173,1.33868062 165.112722,1.51437623 L168.494596,7.79868217 C168.494596,18.9814887 168.494596,25.2437413 168.494596,26.58544 Z" id="Star" fill="#BEDAAE"></path>
            <path d="M164.157303,24.8938207 L157.104013,28.6019548 C156.126324,29.1159564 154.91707,28.7400633 154.403068,27.7623742 C154.19839,27.3730532 154.127761,26.927117 154.202114,26.4936018 L155.549173,18.6396478 L149.842941,13.0774467 C149.051974,12.3064442 149.035789,11.0402177 149.806792,10.2492506 C150.113809,9.93428328 150.516094,9.72930893 150.951368,9.66605991 L158.837186,8.52018346 L162.363831,1.37442004 C162.852676,0.38391272 164.051927,-0.0227652777 165.042435,0.466079309 C165.43686,0.660739787 165.756115,0.979994829 165.950776,1.37442004 L169.477421,8.52018346 L177.363239,9.66605991 C178.456328,9.82489514 179.213691,10.8397808 179.054856,11.9328706 C178.991607,12.3681446 178.786633,12.7704295 178.471665,13.0774467 L172.765434,18.6396478 L174.112492,26.4936018 C174.299214,27.5822747 173.568039,28.6161865 172.479366,28.8029086 C172.045851,28.8772622 171.599914,28.8066329 171.210594,28.6019548 L164.157303,24.8938207 Z" id="Star" stroke="#33414F" stroke-width="2"></path>
            <path d="M127.078652,24.8938207 L120.025362,28.6019548 C119.047672,29.1159564 117.838418,28.7400633 117.324416,27.7623742 C117.119738,27.3730532 117.049109,26.927117 117.123463,26.4936018 L118.470521,18.6396478 L112.76429,13.0774467 C111.973322,12.3064442 111.957138,11.0402177 112.72814,10.2492506 C113.035157,9.93428328 113.437442,9.72930893 113.872716,9.66605991 L121.758534,8.52018346 L125.28518,1.37442004 C125.774024,0.38391272 126.973276,-0.0227652777 127.963783,0.466079309 C128.358208,0.660739787 128.677463,0.979994829 128.872124,1.37442004 L132.398769,8.52018346 L140.284587,9.66605991 C141.377677,9.82489514 142.13504,10.8397808 141.976204,11.9328706 C141.912955,12.3681446 141.707981,12.7704295 141.393014,13.0774467 L135.686782,18.6396478 L137.033841,26.4936018 C137.220563,27.5822747 136.489387,28.6161865 135.400714,28.8029086 C134.967199,28.8772622 134.521263,28.8066329 134.131942,28.6019548 L127.078652,24.8938207 Z" id="Star" stroke="#33414F" stroke-width="2" fill="#BEDAAE"></path>
            <path d="M90,24.8938207 L82.9467098,28.6019548 C81.9690207,29.1159564 80.7597664,28.7400633 80.2457647,27.7623742 C80.0410866,27.3730532 79.9704573,26.927117 80.0448109,26.4936018 L81.3918695,18.6396478 L75.6856379,13.0774467 C74.8946707,12.3064442 74.8784861,11.0402177 75.6494886,10.2492506 C75.9565058,9.93428328 76.3587906,9.72930893 76.7940646,9.66605991 L84.6798828,8.52018346 L88.2065278,1.37442004 C88.6953724,0.38391272 89.8946241,-0.0227652777 90.8851314,0.466079309 C91.2795566,0.660739787 91.5988117,0.979994829 91.7934722,1.37442004 L95.3201172,8.52018346 L103.205935,9.66605991 C104.299025,9.82489514 105.056388,10.8397808 104.897553,11.9328706 C104.834304,12.3681446 104.629329,12.7704295 104.314362,13.0774467 L98.6081305,18.6396478 L99.9551891,26.4936018 C100.141911,27.5822747 99.4107354,28.6161865 98.3220625,28.8029086 C97.8885473,28.8772622 97.4426111,28.8066329 97.0532902,28.6019548 L90,24.8938207 Z" id="Star" stroke="#33414F" stroke-width="2" fill="#BEDAAE"></path>
            <path d="M52.9213483,24.8938207 L45.8680582,28.6019548 C44.890369,29.1159564 43.6811147,28.7400633 43.1671131,27.7623742 C42.9624349,27.3730532 42.8918056,26.927117 42.9661593,26.4936018 L44.3132178,18.6396478 L38.6069862,13.0774467 C37.8160191,12.3064442 37.7998344,11.0402177 38.5708369,10.2492506 C38.8778541,9.93428328 39.2801389,9.72930893 39.715413,9.66605991 L47.6012311,8.52018346 L51.1278762,1.37442004 C51.6167207,0.38391272 52.8159724,-0.0227652777 53.8064797,0.466079309 C54.2009049,0.660739787 54.52016,0.979994829 54.7148205,1.37442004 L58.2414655,8.52018346 L66.1272837,9.66605991 C67.2203734,9.82489514 67.9777363,10.8397808 67.8189011,11.9328706 C67.755652,12.3681446 67.5506777,12.7704295 67.2357104,13.0774467 L61.5294788,18.6396478 L62.8765374,26.4936018 C63.0632594,27.5822747 62.3320837,28.6161865 61.2434108,28.8029086 C60.8098956,28.8772622 60.3639594,28.8066329 59.9746385,28.6019548 L52.9213483,24.8938207 Z" id="Star" stroke="#33414F" stroke-width="2" fill="#BEDAAE"></path>
            <path d="M15.8426966,24.8938207 L8.78940647,28.6019548 C7.8117173,29.1159564 6.60246299,28.7400633 6.08846137,27.7623742 C5.88378324,27.3730532 5.81315389,26.927117 5.88750757,26.4936018 L7.23456613,18.6396478 L1.52833452,13.0774467 C0.737367369,12.3064442 0.721182756,11.0402177 1.49218518,10.2492506 C1.79920239,9.93428328 2.20148721,9.72930893 2.63676127,9.66605991 L10.5225794,8.52018346 L14.0492245,1.37442004 C14.5380691,0.38391272 15.7373207,-0.0227652777 16.7278281,0.466079309 C17.1222533,0.660739787 17.4415083,0.979994829 17.6361688,1.37442004 L21.1628139,8.52018346 L29.048632,9.66605991 C30.1417217,9.82489514 30.8990846,10.8397808 30.7402494,11.9328706 C30.6770004,12.3681446 30.472026,12.7704295 30.1570587,13.0774467 L24.4508271,18.6396478 L25.7978857,26.4936018 C25.9846077,27.5822747 25.2534321,28.6161865 24.1647592,28.8029086 C23.7312439,28.8772622 23.2853077,28.8066329 22.8959868,28.6019548 L15.8426966,24.8938207 Z" id="Star" stroke="#33414F" stroke-width="2" fill="#BEDAAE"></path>
        </g>
    </g>
</svg>