<svg height="40px" version="1.1" viewBox="0 0 42 42" width="40px" xmlns:xlink="http://www.w3.org/1999/xlink" xmlns="http://www.w3.org/2000/svg">
    <defs></defs>
    <g fill-rule="evenodd" fill="none" id="Footer" stroke-width="1" stroke="none">
        <g id="footer_V3" transform="translate(-328.000000, -211.000000)">
            <g id="Group-10" transform="translate(329.000000, 212.000000)">
                <circle cx="20" cy="20" id="zc-circle" r="20" stroke="#FFFFFF"></circle>
                <g fill-rule="nonzero" fill="#FFFFFF" id="zc-icon" transform="translate(14.000000, 11.000000)">
                    <g id="BS-Question-Solid-Rounded-Circle">
                        <path d="M5.5,18.1111111 C4.46666667,18.1111111 3.64,17.2844444 3.64,16.2511111 C3.64,15.2177778 4.46666667,14.3911111 5.5,14.3911111 L5.5,14.3911111 C6.53333333,14.3911111 7.36,15.2177778 7.36,16.2511111 C7.36,17.2844444 6.53333333,18.1111111 5.5,18.1111111 Z M9.70222222,7.64 C9.49555556,7.91555556 9.25444444,8.19111111 9.01333333,8.43222222 C8.84111111,8.60444444 8.63444444,8.77666667 8.39333333,9.05222222 C8.11777778,9.29333333 7.91111111,9.5 7.73888889,9.70666667 C7.56666667,9.87888889 7.39444444,10.0511111 7.29111111,10.1888889 C6.98111111,10.6022222 6.84333333,11.1533333 6.87777778,11.67 L6.87777778,12.7377778 L4.19111111,12.7377778 L4.19111111,11.2911111 C4.15666667,10.8088889 4.22555556,10.3266667 4.43222222,9.84444444 C4.70777778,9.39666667 5.01777778,8.98333333 5.43111111,8.60444444 L7.15333333,6.88222222 C7.53222222,6.46888889 7.70444444,5.95222222 7.70444444,5.40111111 C7.70444444,4.85 7.49777778,4.33333333 7.11888889,3.95444444 C6.74,3.57555556 6.18888889,3.36888889 5.63777778,3.36888889 C5.08666667,3.33444444 4.53555556,3.54111111 4.12222222,3.92 C3.70888889,4.29888889 3.46777778,4.85 3.43333333,5.40111111 L0.54,5.40111111 C0.643333333,4.12666667 1.22888889,2.92111111 2.19333333,2.09444444 C3.19222222,1.26777778 4.43222222,0.854444444 5.74111111,0.888888889 C6.98111111,0.82 8.22111111,1.23333333 9.18555556,2.02555556 C10.0811111,2.78333333 10.5288889,3.88555556 10.5288889,5.26333333 C10.4944444,6.12444444 10.2188889,6.98555556 9.70222222,7.64 Z" id="Shape"></path>
                    </g>
                </g>
            </g>
        </g>
    </g>
</svg>
