<svg xmlns="http://www.w3.org/2000/svg" width="44" height="44" viewBox="0 0 44 44">
    <path fill="#8D97A1" fill-rule="nonzero" d="M22 0C9.87 0 0 9.87 0 22s9.87 22 22 22 22-9.87 22-22S34.13 0 22 0zm0 .999c11.533 0 20.917 9.383 20.917 20.916 0 .8-.05 1.588-.138 2.364-1.392-4.587-5.7-8.605-14.518-10.52-10.828-1.698-7.024-4.981-5.016-6.168-.46.06-.618.152-.823.193-11.422 3.098-7.63 6.728-7.63 6.728 8.726 8.37 1.585 15.546-8.77 20.88a20.818 20.818 0 0 1-4.939-13.477C1.083 10.382 10.466 1 22 1zm-3.55 10.595c.06.344.258.699.602 1.056a.2.2 0 0 1 .063.164c-.007.073-.06.144-.137.195a.35.35 0 0 1-.213.065.314.314 0 0 1-.224-.087c-.415-.438-.65-.858-.714-1.282-.028-.133.094-.266.266-.301.172-.027.338.056.358.19zm-.26-1.228a.176.176 0 0 1 .037-.088c.2-.3.468-.584.794-.86a.399.399 0 0 1 .435-.028c.121.082.123.236 0 .338a3.436 3.436 0 0 0-.683.741.376.376 0 0 1-.426.124c-.11-.034-.169-.124-.157-.227zm1.926 29.622c.161-.15.435-.16.61-.025.176.14.19.374.029.525a79.46 79.46 0 0 1-1.758 1.618.469.469 0 0 1-.311.114.468.468 0 0 1-.3-.103.336.336 0 0 1-.012-.526 75.171 75.171 0 0 0 1.742-1.603zm-.49-26.209a.278.278 0 0 1 .083-.19c.118-.11.328-.139.455-.051.477.309.987.58 1.326.756.095.054.143.134.135.232a.27.27 0 0 1-.056.134.379.379 0 0 1-.285.126.431.431 0 0 1-.17-.037c-.557-.29-.995-.542-1.379-.8a.26.26 0 0 1-.11-.17zm6.73 19.31c.129-.174.398-.224.596-.115.202.11.26.34.132.513-.454.612-.94 1.232-1.446 1.842a.484.484 0 0 1-.603.087c-.195-.12-.24-.351-.101-.518.498-.6.976-1.21 1.422-1.81zm-.97-16.517a.394.394 0 0 1 .457-.084c.556.294 1.032.566 1.454.839.082.055.128.135.125.22 0 .063-.022.12-.07.166a.352.352 0 0 1-.265.12.394.394 0 0 1-.197-.056c-.432-.276-.89-.543-1.419-.825a.245.245 0 0 1-.131-.178.232.232 0 0 1 .045-.202zm3.5 12.718c.112-.183.372-.253.584-.157.21.096.292.32.18.503a65.87 65.87 0 0 1-1.178 1.84l-.065.1a.446.446 0 0 1-.376.188.478.478 0 0 1-.212-.047c-.208-.1-.282-.327-.164-.506l.065-.1c.368-.562.771-1.176 1.166-1.821zm-.69-10.973a.397.397 0 0 1 .473-.009 9.3 9.3 0 0 1 1.206 1.205l.01.007c.095.132.057.304-.096.394a.391.391 0 0 1-.192.05c-.115 0-.219-.042-.276-.121a8.365 8.365 0 0 0-1.121-1.117c-.131-.113-.138-.296-.004-.409zm2.592 6.985c.056-.2.288-.321.522-.272.231.049.374.25.316.45a12.66 12.66 0 0 1-.85 2.14.441.441 0 0 1-.398.227.5.5 0 0 1-.169-.029c-.219-.081-.322-.3-.228-.488.366-.743.63-1.406.807-2.028zm-.23-4.533c.212-.092.474-.021.582.161.413.699.661 1.454.737 2.247.02.203-.157.383-.395.4l-.037.001c-.22 0-.41-.147-.43-.341a4.635 4.635 0 0 0-.645-1.967c-.11-.184-.025-.408.188-.501zm-6.086-4.666c-.06.084-.173.13-.293.13-.028 0-.064 0-.101-.009v.009l-.054-.03c-.018-.009-.027-.016-.036-.016-.162-.084-.332-.168-.502-.254a98.482 98.482 0 0 1-.927-.455.255.255 0 0 1-.135-.167c-.023-.068.002-.143.042-.204.1-.12.304-.165.455-.097.221.113.443.226.675.338.259.122.518.25.777.38.1.045.16.137.154.229a.299.299 0 0 1-.055.146zM23.41 36.647a.482.482 0 0 1 .608-.063c.187.126.219.36.073.522a57.323 57.323 0 0 1-1.633 1.717.452.452 0 0 1-.328.133.472.472 0 0 1-.28-.09c-.182-.133-.204-.366-.05-.523a61.322 61.322 0 0 0 1.61-1.696z"/>
</svg>
