<svg height="40px" version="1.1" viewBox="0 0 42 42" width="40px" xmlns:xlink="http://www.w3.org/1999/xlink" xmlns="http://www.w3.org/2000/svg">
    <defs></defs>
    <g fill-rule="evenodd" fill="none" id="Footer" stroke-width="1" stroke="none">
        <g id="footer_V3" transform="translate(-943.000000, -211.000000)">
            <g id="Group-7" transform="translate(944.000000, 212.000000)">
                <circle cx="20" cy="20" id="zc-circle" r="20" stroke="#FFFFFF"></circle>
                <g fill-rule="nonzero" fill="#FFFFFF" id="zc-icon" transform="translate(12.000000, 11.000000)">
                    <g id="Group">
                        <path d="M7.79385856,19 L7.70309474,18.9717634 C7.62293703,18.9469801 5.72179195,18.3383691 3.81371211,16.0290599 C0.661658043,12.2142712 0,6.77089949 0,2.87587003 L0,2.58029958 L0.296767094,2.57115823 C0.342658913,2.56973624 4.92103071,2.40498872 7.59703364,0.164747517 L7.79385856,0 L7.99068347,0.164747517 C10.6701538,2.40803584 15.2448542,2.56993938 15.2907461,2.57115823 L15.5875131,2.58009644 L15.5875131,2.87587003 C15.5875131,6.77069635 14.9258551,12.2142712 11.774005,16.0290599 C9.86592516,18.3383691 7.96478009,18.9471833 7.88462238,18.9719665 L7.79385856,19 Z M0.613114697,3.16493997 C0.711425171,15.2248239 6.96087106,18.0365013 7.79385856,18.3570581 C8.18506081,18.2071399 9.76741072,17.5138189 11.3311999,15.6057136 C14.2672565,12.0235216 14.9421722,6.92000513 14.9743985,3.16493997 C13.9062409,3.09384054 10.259575,2.71477906 7.79385856,0.790625568 C5.32814213,2.71477906 1.68127227,3.09384054 0.613114697,3.16493997 Z M7.79365459,1.79617453 L7.79365459,17.2826443 C7.79365459,17.2826443 11.9506375,15.994729 13.5338033,9.44261261 C13.9062409,7.90178657 14.1363119,6.06985919 14.1363119,3.89502946 C14.1363119,3.89502946 10.2412183,3.77598871 7.79365459,1.79617453 Z M8.13631186,1.79617453 L8.13631186,17.2826443 C8.13631186,17.2826443 3.97932894,15.994729 2.39616318,9.44261261 C2.02372558,7.90178657 1.79365459,6.06985919 1.79365459,3.89502946 C1.79365459,3.89502946 5.6887482,3.77598871 8.13631186,1.79617453 Z" id="Shape"></path>
                    </g>
                </g>
            </g>
        </g>
    </g>
</svg>
