<svg id="Layer_1" data-name="Layer 1" xmlns="http://www.w3.org/2000/svg" viewBox="0 0 50 50"><defs><style>.cls-1{fill:#fff;fill-rule:evenodd;}</style></defs><title>Twitter</title><path class="cls-1" d="M28.47,15.24a5,5,0,0,0-3.4,5.08l.05.87-.87-.11A14.15,14.15,0,0,1,15.94,17l-1.16-1.14-.29.84a5.1,5.1,0,0,0,1.08,5.23c.7.74.54.85-.66.4a2.11,2.11,0,0,0-.83-.19,6.43,6.43,0,0,0,.63,2.37,5.72,5.72,0,0,0,2.4,2.26l.85.4-1,0c-1,0-1,0-.91.39a5.27,5.27,0,0,0,3.27,2.89l1.08.37-.94.57a9.92,9.92,0,0,1-4.68,1.31,4.65,4.65,0,0,0-1.44.14,13.6,13.6,0,0,0,3.37,1.55,14.73,14.73,0,0,0,11.46-1.31A15.26,15.26,0,0,0,34,26.23a18,18,0,0,0,1.19-5.29c0-.81.05-.92,1-1.89a10.78,10.78,0,0,0,1.22-1.36c.18-.34.16-.34-.73,0-1.48.53-1.69.46-1-.33a5.21,5.21,0,0,0,1.19-1.89s-.26,0-.56.19a8.7,8.7,0,0,1-1.54.6l-.94.3L33,15.94a7.15,7.15,0,0,0-1.48-.78A6,6,0,0,0,28.47,15.24ZM25,50A25,25,0,1,1,50,25,25,25,0,0,1,25,50Z"/></svg>